<?xml version="1.0" encoding="utf-8"?>
<!-- Generator: Adobe Illustrator 26.1.0, SVG Export Plug-In . SVG Version: 6.00 Build 0)  -->
<svg version="1.1" id="Layer_1" xmlns="http://www.w3.org/2000/svg" xmlns:xlink="http://www.w3.org/1999/xlink" x="0px" y="0px"
	 viewBox="0 0 345 276" style="enable-background:new 0 0 345 276;" xml:space="preserve">
<style type="text/css">
	.st0{fill:#C73D34;}
	.st1{fill:#8B8B90;}
</style>
<g>
	<path class="st0" d="M269.86,124.84c0-0.78-0.02-1.51,0.01-2.23c0.02-0.38-0.15-0.56-0.48-0.68c-1.15-0.44-2.29,0.08-2.72,1.25
		c-0.4,1.1-0.43,2.25-0.45,3.39c-0.02,1.09,0,2.19-0.01,3.28c0,0.3,0.09,0.4,0.4,0.4c1.75-0.01,3.49,0.05,5.24-0.02
		c1.44-0.06,2.83-0.38,3.8-1.6c0.65-0.81,0.91-1.79,1.17-2.78c0.05-0.19,0.11-0.5,0.21-0.52c0.35-0.06,0.72-0.03,1.09,0
		c0.04,0,0.09,0.23,0.09,0.35c0.01,1.3,0,2.59,0,3.89c0,0.14,0,0.29,0,0.47c0.2,0.01,0.36,0.02,0.52,0.02
		c1.16,0,2.33,0.01,3.49-0.01c0.34,0,0.51,0.07,0.46,0.45c-0.03,0.23,0,0.46-0.01,0.69c0,0.54,0,0.54-0.52,0.54
		c-1.14,0-2.27,0-3.41,0c-0.16,0-0.32,0-0.52,0c-0.01,0.19-0.03,0.33-0.03,0.48c0,3.89,0,7.78,0,11.67c0,0.3,0.03,0.59,0.08,0.89
		c0.24,1.41,1.68,2.07,2.86,1.24c0.48-0.33,0.8-0.89,1.19-1.35c0.08-0.1,0.13-0.23,0.22-0.39c0.32,0.12,0.62,0.24,0.93,0.36
		c-0.55,1.87-2.04,3.3-4.06,3.46c-0.89,0.07-1.76,0.03-2.59-0.32c-1.48-0.63-2.18-1.83-2.37-3.37c-0.05-0.44-0.07-0.89-0.07-1.33
		c-0.01-3.61-0.01-7.21,0.01-10.82c0-0.41-0.1-0.52-0.52-0.52c-2.41,0.02-4.82,0.02-7.23,0c-0.35,0-0.46,0.09-0.46,0.45
		c0.01,4.35,0.01,8.7,0.01,13.05c0,0.89,0.19,1.1,1.08,1.25c0.41,0.07,0.83,0.12,1.25,0.17c0.55,0.06,0.28,0.48,0.33,0.75
		c0.06,0.3-0.16,0.31-0.38,0.31c-2.69,0-5.39,0-8.08,0c-0.28,0-0.38-0.09-0.37-0.37c0.02-0.71-0.04-0.65,0.6-0.72
		c0.36-0.04,0.72-0.12,1.07-0.21c0.35-0.09,0.55-0.33,0.59-0.69c0.02-0.19,0.04-0.38,0.04-0.56c0-4.3,0-8.59,0-12.89
		c0-0.53,0-0.53-0.53-0.53c-0.61,0-1.22-0.01-1.83,0c-0.27,0.01-0.38-0.06-0.39-0.36c-0.02-1.14-0.03-1.14,1.1-1.14
		c0.43,0,0.87-0.01,1.3,0c0.27,0.01,0.35-0.1,0.35-0.36c0-0.99-0.01-1.97,0.03-2.96c0.06-1.4,0.39-2.73,1.2-3.89
		c1.01-1.46,2.46-2.19,4.19-2.41c1.22-0.16,2.43-0.13,3.61,0.25c0.62,0.2,1.22,0.47,1.64,1c0.48,0.61,0.63,1.29,0.31,2.01
		c-0.32,0.71-0.93,0.97-1.68,0.96C271.06,124.83,270.49,124.84,269.86,124.84z"/>
	<path class="st1" d="M13.98,136.12c0.09,0.04,0.14,0.08,0.2,0.1c1.55,0.43,2.67,1.42,3.5,2.73c1.2,1.88,2.32,3.81,3.47,5.71
		c0.05,0.08,0.1,0.16,0.14,0.24c0.5,1.05,1.34,1.57,2.49,1.68c0.68,0.06,0.67,0.11,0.66,0.73c-0.01,0.25-0.09,0.36-0.36,0.36
		c-1.85-0.01-3.71,0.01-5.56-0.02c-0.17,0-0.4-0.2-0.5-0.37c-1.59-2.7-3.17-5.41-4.76-8.11c-0.31-0.53-0.65-1.06-1.04-1.54
		c-0.66-0.83-1.62-1.01-2.62-1.07c-0.31-0.02-0.62,0.01-0.93-0.01c-0.34-0.02-0.44,0.12-0.44,0.45c0.01,1.39,0.01,2.78,0.01,4.17
		c0,1.28,0,2.57,0,3.85c0,0.69,0.26,1.07,0.93,1.24c0.55,0.14,1.11,0.22,1.67,0.31c0.42,0.06,0.44,0.12,0.42,0.77
		c-0.01,0.37-0.24,0.32-0.47,0.32c-3.03,0-6.06,0-9.09,0c-0.22,0-0.46,0.05-0.48-0.32c-0.02-0.65,0-0.71,0.42-0.78
		c0.54-0.09,1.1-0.17,1.63-0.33c0.67-0.19,0.89-0.54,0.89-1.22c0-6.12,0-12.24,0-18.35c0-0.72-0.25-1.08-0.94-1.27
		c-0.55-0.15-1.11-0.24-1.67-0.33c-0.54-0.09-0.27-0.5-0.31-0.77c-0.05-0.3,0.2-0.3,0.41-0.29c3.8,0.01,7.6-0.01,11.41,0.05
		c1.35,0.02,2.68,0.3,3.95,0.83c2.06,0.86,3.25,2.36,3.42,4.61c0.18,2.4-0.78,4.19-2.88,5.37c-0.94,0.53-1.96,0.83-3.01,1.05
		c-0.13,0.03-0.26,0.06-0.39,0.1C14.1,136.03,14.06,136.07,13.98,136.12z M8.25,130.27c0,1.54,0,3.08,0,4.62
		c0,0.19-0.06,0.43,0.27,0.42c1.34-0.03,2.68,0.03,4.01-0.11c1.77-0.2,3.04-1.14,3.53-2.94c0.27-1,0.29-2.02,0.19-3.05
		c-0.21-2.19-1.35-3.52-3.51-3.82c-1.3-0.18-2.64-0.11-3.96-0.17c-0.4-0.02-0.54,0.1-0.54,0.52C8.26,127.25,8.25,128.76,8.25,130.27
		z"/>
	<path class="st1" d="M129.5,134.93c0.26,0.05,0.51,0.1,0.77,0.14c1.73,0.27,3.38,0.76,4.74,1.93c1.52,1.29,2.03,2.97,1.83,4.91
		c-0.23,2.14-1.45,3.54-3.32,4.47c-1.49,0.74-3.08,1.16-4.72,1.2c-3.76,0.09-7.52,0.08-11.28,0.11c-0.23,0-0.42-0.04-0.39-0.32
		c0.03-0.29-0.18-0.69,0.34-0.77c0.49-0.08,0.99-0.15,1.48-0.26c0.85-0.2,1.14-0.6,1.14-1.47c0-6,0-12,0-17.99
		c0-0.95-0.25-1.29-1.18-1.51c-0.48-0.12-0.98-0.2-1.47-0.28c-0.52-0.08-0.27-0.48-0.31-0.74c-0.04-0.28,0.16-0.33,0.39-0.33
		c3.45,0.01,6.9-0.02,10.35,0.06c1.65,0.04,3.27,0.42,4.75,1.23c2.19,1.2,2.89,3.4,2.38,5.46c-0.33,1.35-1.24,2.28-2.45,2.87
		c-0.83,0.41-1.74,0.66-2.61,0.98c-0.15,0.05-0.3,0.09-0.45,0.14C129.51,134.81,129.5,134.87,129.5,134.93z M124.13,140.69
		c0,1.46,0,2.92,0,4.37c0,0.78,0.27,1.15,1.05,1.29c1.42,0.26,2.83,0.18,4.21-0.25c1.62-0.5,2.65-1.59,3.02-3.24
		c0.15-0.69,0.2-1.42,0.2-2.12c0-2.64-1.48-4.43-4.09-4.8c-1.29-0.18-2.61-0.12-3.92-0.19c-0.39-0.02-0.48,0.13-0.48,0.49
		C124.14,137.72,124.13,139.2,124.13,140.69z M124.13,129.88c0,1.4,0,2.81,0,4.21c0,0.22,0.01,0.42,0.31,0.41
		c1.15-0.06,2.3-0.03,3.43-0.2c1.47-0.23,2.57-1.02,3.01-2.54c0.26-0.89,0.25-1.79,0.19-2.69c-0.13-1.89-1.21-3.23-3.06-3.58
		c-1.09-0.21-2.23-0.19-3.34-0.25c-0.52-0.03-0.53,0.01-0.53,0.51C124.13,127.12,124.13,128.5,124.13,129.88z"/>
	<path class="st0" d="M329.26,147.49c-0.15-0.07-0.29-0.15-0.43-0.21c-1.69-0.75-2.32-2.61-1.44-4.24c0.51-0.95,1.32-1.59,2.27-2.07
		c0.19-0.1,0.38-0.19,0.66-0.32c-0.18-0.13-0.3-0.24-0.44-0.33c-1.39-0.85-2.4-1.98-2.64-3.64c-0.32-2.14,0.31-3.95,2.04-5.32
		c2.85-2.26,6.94-2.31,9.84-0.11c0.31,0.24,0.53,0.29,0.89,0.09c0.64-0.36,1.32-0.63,1.96-0.98c0.46-0.25,0.93-0.32,1.44-0.3
		c0.27,0.01,0.39,0.09,0.38,0.38c-0.01,0.65-0.01,1.3,0,1.94c0,0.27-0.09,0.38-0.38,0.38c-0.77-0.02-1.54-0.01-2.31,0
		c-0.15,0-0.29,0.01-0.51,0.02c0.06,0.17,0.1,0.29,0.16,0.4c1.32,2.85,0.33,5.9-2.43,7.39c-1.89,1.02-3.89,1.26-5.98,0.81
		c-0.83-0.18-1.56-0.09-2.18,0.51c-0.83,0.8-0.57,1.92,0.54,2.23c0.41,0.11,0.85,0.16,1.28,0.16c1.81,0.02,3.63,0,5.44,0.01
		c1.06,0.01,2.1,0.14,3.1,0.54c1.89,0.77,2.89,2.5,2.72,4.52c-0.19,2.13-1.33,3.6-3.1,4.66c-1.3,0.78-2.73,1.17-4.22,1.33
		c-2.24,0.24-4.47,0.16-6.61-0.62c-0.8-0.29-1.6-0.69-2.27-1.22c-1.7-1.33-1.64-3.51,0.1-4.78
		C327.77,148.25,328.52,147.92,329.26,147.49z M334.12,154.27c0.01-0.04,0.02-0.07,0.02-0.11c0.4-0.02,0.81-0.03,1.21-0.07
		c1.25-0.13,2.46-0.41,3.48-1.19c1.11-0.84,1.51-1.97,1.24-3.33c-0.19-0.99-1.02-1.72-2.29-1.78c-2.09-0.11-4.19-0.11-6.28-0.07
		c-1,0.02-1.75,0.6-2.18,1.53c-0.82,1.79-0.04,3.8,1.83,4.43C332.1,153.99,333.13,154.08,334.12,154.27z M330.95,135.61
		c0.03,0.01,0.07,0.01,0.1,0.02c-0.01,0.95,0.06,1.89,0.42,2.78c0.5,1.25,1.44,1.88,2.8,1.88c1.36,0,2.37-0.61,2.8-1.86
		c0.25-0.73,0.38-1.52,0.44-2.29c0.1-1.12-0.01-2.24-0.42-3.31c-0.3-0.78-0.8-1.38-1.6-1.68c-1.78-0.68-3.54,0.11-4.09,1.92
		C331.16,133.89,331.1,134.76,330.95,135.61z"/>
	<path class="st1" d="M197.2,132.96c0.18-0.19,0.28-0.29,0.37-0.4c1.05-1.25,2.32-2.2,3.92-2.61c1.72-0.43,3.42-0.41,4.97,0.56
		c1.38,0.87,2.02,2.21,2.04,3.8c0.04,3.58,0.02,7.16,0.02,10.74c0,0.16,0,0.32,0.01,0.49c0.03,0.47,0.28,0.79,0.73,0.9
		c0.38,0.09,0.77,0.17,1.15,0.21c0.52,0.06,0.34,0.45,0.36,0.74c0.03,0.33-0.23,0.27-0.42,0.27c-2.44,0-4.87,0-7.31,0
		c-0.21,0-0.47,0.05-0.44-0.3c0.02-0.28-0.14-0.65,0.36-0.71c0.29-0.03,0.59-0.1,0.87-0.17c0.6-0.15,0.84-0.43,0.87-1.05
		c0.02-0.32,0.01-0.65,0.01-0.97c0-3.03,0.01-6.05-0.01-9.08c0-0.45-0.05-0.92-0.16-1.36c-0.31-1.24-1.26-2.05-2.54-2.14
		c-1.65-0.12-3.02,0.46-4.1,1.71c-0.59,0.68-0.74,1.51-0.74,2.38c0,3.08,0,6.16,0,9.24c0,0.93,0.2,1.15,1.11,1.34
		c0.21,0.04,0.43,0.07,0.64,0.1c0.23,0.03,0.35,0.13,0.36,0.39c0.02,0.59,0.01,0.61-0.59,0.61c-2.37,0-4.74,0-7.11,0
		c-0.2,0-0.48,0.13-0.5-0.27c-0.03-0.61-0.01-0.66,0.46-0.74c0.32-0.05,0.64-0.11,0.96-0.17c0.58-0.12,0.83-0.42,0.85-1.01
		c0-0.11,0-0.22,0-0.32c0-6.48,0-12.97,0-19.45c0-0.04,0-0.08,0-0.12c-0.01-1.17-0.5-1.7-1.67-1.81c-0.19-0.02-0.38-0.02-0.56-0.06
		c-0.2-0.05-0.51,0.11-0.54-0.3c-0.04-0.65-0.02-0.73,0.44-0.87c1.52-0.49,3.03-1,4.56-1.45c0.43-0.13,0.91-0.08,1.36-0.09
		c0.07,0,0.18,0.14,0.21,0.23c0.04,0.12,0.01,0.27,0.01,0.4c0,3.58,0,7.16,0,10.74C197.17,132.52,197.19,132.69,197.2,132.96z"/>
	<path class="st1" d="M49.42,132.8c0.81-0.7,1.54-1.46,2.39-2.04c2.34-1.6,5.61-1.36,7.76,0.51c1.57,1.36,2.41,3.13,2.74,5.15
		c0.34,2.09,0.29,4.16-0.37,6.2c-0.97,2.96-3.62,5.07-6.68,5.4c-2.53,0.27-4.84-0.21-6.93-1.66c-0.35-0.24-0.57-0.23-0.85,0.09
		c-0.27,0.32-0.59,0.59-0.9,0.88c-0.09,0.08-0.19,0.16-0.3,0.2c-0.49,0.14-0.67-0.01-0.67-0.52c0-7.02,0-14.05,0-21.07
		c0-1.65-0.31-1.99-1.96-2.19c-0.07-0.01-0.13-0.02-0.2-0.03c-0.59-0.08-0.73-0.27-0.58-0.86c0.03-0.1,0.15-0.23,0.26-0.26
		c1.61-0.54,3.23-1.09,4.86-1.58c0.37-0.11,0.81-0.05,1.21-0.03c0.08,0,0.18,0.13,0.21,0.22c0.04,0.11,0.01,0.24,0.01,0.36
		c0,3.61,0,7.21,0,10.82C49.42,132.53,49.42,132.69,49.42,132.8z M49.43,139.49C49.42,139.49,49.42,139.49,49.43,139.49
		c0,1.08-0.05,2.16,0.01,3.24c0.08,1.57,0.83,2.84,2.21,3.54c2.07,1.04,4.97,0.6,6.12-2.26c0.82-2.03,0.87-4.16,0.75-6.3
		c-0.06-1.05-0.23-2.09-0.61-3.08c-0.88-2.32-2.85-3.37-5.2-2.76c-1.83,0.47-3.25,2.3-3.29,4.26
		C49.41,137.24,49.43,138.37,49.43,139.49z"/>
	<path class="st0" d="M313.82,147.68c-2.78,0-5.49,0-8.23,0c0-0.33,0-0.64,0-0.97c0.43-0.08,0.86-0.14,1.28-0.23
		c0.72-0.15,0.95-0.42,0.95-1.14c0.01-3.67,0.01-7.35,0-11.02c0-1.03-0.44-1.5-1.47-1.64c-0.4-0.05-0.8-0.08-1.27-0.12
		c0-0.28-0.02-0.56,0.01-0.83c0.01-0.1,0.14-0.22,0.25-0.25c1.45-0.53,2.89-1.07,4.35-1.55c0.36-0.12,0.77-0.07,1.16-0.06
		c0.08,0,0.2,0.19,0.21,0.31c0.1,0.86,0.18,1.72,0.27,2.58c0.01,0.14,0.05,0.29,0.08,0.51c0.18-0.21,0.3-0.37,0.43-0.52
		c1.29-1.59,2.87-2.71,4.94-2.98c1.8-0.23,3.52-0.03,4.91,1.33c0.9,0.88,1.32,1.98,1.33,3.21c0.03,3.31,0.01,6.62,0.02,9.93
		c0,0.41-0.01,0.81,0.01,1.22c0.03,0.65,0.27,0.92,0.91,1.04c0.41,0.08,0.82,0.15,1.24,0.22c0.02,0,0.05,0.03,0.08,0.05
		c0,0.3,0,0.6,0,0.93c-2.74,0-5.45,0-8.22,0c0-0.27-0.03-0.53,0.01-0.77c0.02-0.1,0.17-0.22,0.29-0.25c0.26-0.07,0.53-0.09,0.8-0.14
		c0.82-0.18,1.01-0.41,1.01-1.25c0-1.95,0-3.89,0-5.84c0-1.55,0.03-3.11-0.03-4.66c-0.07-1.88-1.43-2.99-3.31-2.84
		c-1.56,0.12-2.79,0.77-3.66,2.08c-0.35,0.53-0.46,1.12-0.46,1.74c0,3.21,0,6.43,0,9.64c0,0.69,0.19,0.92,0.85,1.08
		c0.29,0.07,0.58,0.14,0.88,0.16c0.29,0.02,0.41,0.15,0.38,0.44C313.81,147.26,313.82,147.46,313.82,147.68z"/>
	<path class="st0" d="M304.03,145.4c0,0.2,0.03,0.42-0.01,0.62c-0.03,0.14-0.14,0.33-0.26,0.37c-1.4,0.44-2.81,0.89-4.23,1.26
		c-0.43,0.11-0.91,0.02-1.42,0.02c-0.12-1-0.23-1.99-0.36-3.07c-0.39,0.45-0.71,0.87-1.08,1.26c-1.96,2.05-4.33,2.74-7.06,1.97
		c-1.88-0.53-2.83-1.93-3.11-3.81c-0.07-0.44-0.07-0.89-0.07-1.33c-0.01-3.35,0-6.7,0-10.05c0-0.97-0.15-1.15-1.12-1.34
		c-0.17-0.03-0.35-0.07-0.52-0.1c-0.59-0.1-0.76-0.36-0.58-0.93c0.03-0.09,0.24-0.18,0.37-0.19c0.88-0.02,1.76-0.01,2.64-0.01
		c0.84,0,1.68,0,2.52,0c0.56,0,0.56,0,0.56,0.54c0,3.92-0.01,7.83,0.01,11.75c0,0.65,0.11,1.33,0.33,1.93
		c0.36,1.01,1.21,1.49,2.25,1.6c1.51,0.15,2.81-0.26,3.78-1.5c0.55-0.7,0.78-1.5,0.79-2.37c0.01-3.2,0.01-6.4,0-9.6
		c0-0.67-0.24-0.96-0.9-1.1c-0.26-0.06-0.53-0.14-0.8-0.15c-0.36-0.01-0.45-0.17-0.44-0.51c0.02-0.59,0-0.59,0.6-0.59
		c1.64,0,3.28,0.01,4.91-0.01c0.38,0,0.48,0.13,0.48,0.49c-0.01,4.36-0.01,8.73-0.01,13.09c0,0.18,0,0.35,0.01,0.53
		c0.05,0.58,0.29,0.89,0.88,1C302.77,145.28,303.36,145.32,304.03,145.4z"/>
	<path class="st0" d="M219.28,140.81c0.39,0,0.78-0.02,1.17,0.01c0.11,0.01,0.24,0.18,0.3,0.31c0.44,0.97,0.84,1.96,1.29,2.92
		c0.76,1.63,2.02,2.55,3.84,2.69c1.02,0.08,2.03,0.07,3.02-0.16c2.32-0.54,3.33-2.32,3.06-4.58c-0.21-1.71-1.24-2.82-2.76-3.47
		c-1.4-0.6-2.86-1.06-4.27-1.64c-0.96-0.4-1.92-0.83-2.79-1.38c-1.86-1.16-2.76-2.92-2.77-5.1c-0.01-1.76,0.47-3.36,1.75-4.64
		c1.1-1.09,2.44-1.73,3.95-1.99c2.39-0.42,4.74-0.1,7.07,0.47c0.38,0.09,0.77,0.18,1.13,0.3c0.12,0.04,0.27,0.2,0.28,0.31
		c0.02,1.47,0.01,2.94,0,4.42c0,0.04-0.02,0.08-0.05,0.17c-0.36,0-0.74,0.02-1.11-0.01c-0.1-0.01-0.22-0.17-0.28-0.28
		c-0.38-0.76-0.72-1.54-1.11-2.3c-0.54-1.05-1.45-1.61-2.6-1.79c-1.32-0.21-2.63-0.19-3.86,0.36c-1.25,0.55-1.96,1.54-2.12,2.9
		c-0.18,1.55,0.33,2.81,1.62,3.73c1,0.71,2.15,1.05,3.28,1.48c1.5,0.57,3.04,1.07,4.48,1.78c2.18,1.07,3.3,2.92,3.43,5.34
		c0.1,1.85-0.33,3.54-1.59,4.95c-1.19,1.32-2.72,2.03-4.44,2.32c-2.34,0.4-4.66,0.2-6.96-0.35c-0.91-0.22-1.8-0.49-2.69-0.76
		c-0.13-0.04-0.3-0.22-0.3-0.33c-0.02-1.82-0.01-3.65-0.01-5.47C219.24,140.95,219.26,140.9,219.28,140.81z"/>
	<path class="st1" d="M41.97,139.11c0.01,1.6-0.33,3.3-1.32,4.79c-1.47,2.23-3.54,3.65-6.18,4.06c-3.01,0.47-5.52-0.64-7.6-2.77
		c-1.74-1.77-2.37-3.96-2.35-6.39c0.01-1.63,0.33-3.18,1.14-4.62c0.87-1.53,2.13-2.63,3.65-3.47c1.22-0.67,2.52-1.04,3.92-1.01
		c2.22,0.05,4.14,0.88,5.79,2.32C41.11,133.85,42,136.2,41.97,139.11z M28.43,138.88c0.04,0.7,0.05,1.4,0.13,2.1
		c0.16,1.45,0.51,2.84,1.35,4.06c1.51,2.19,4.49,2.44,6.26,0.52c0.76-0.83,1.17-1.84,1.43-2.91c0.46-1.88,0.51-3.79,0.32-5.71
		c-0.13-1.29-0.4-2.56-1.05-3.71c-1.02-1.81-2.69-2.61-4.57-2.17c-1.48,0.35-2.34,1.39-2.92,2.69
		C28.64,135.38,28.44,137.11,28.43,138.88z"/>
	<path class="st1" d="M147.79,148.08c-1.85-0.11-3.9-1.02-5.6-2.7c-1.79-1.78-2.51-3.98-2.51-6.45c0-1.72,0.3-3.37,1.22-4.84
		c1.48-2.37,3.6-3.88,6.38-4.28c2.97-0.42,5.44,0.72,7.48,2.8c1.82,1.86,2.46,4.16,2.37,6.71c-0.05,1.48-0.35,2.88-1.07,4.19
		c-0.85,1.54-2.1,2.66-3.62,3.5C151.17,147.71,149.8,148.1,147.79,148.08z M143.59,138.88c0.04,0.67,0.05,1.35,0.12,2.02
		c0.15,1.49,0.51,2.92,1.39,4.18c1.45,2.09,4.28,2.39,6.1,0.63c0.7-0.67,1.1-1.53,1.39-2.44c0.61-1.92,0.67-3.9,0.53-5.89
		c-0.1-1.42-0.37-2.8-1.05-4.08c-1.06-2.01-3.07-2.85-5.11-2.08c-1.28,0.48-2,1.52-2.51,2.72
		C143.78,135.51,143.61,137.18,143.59,138.88z"/>
	<path class="st1" d="M75.1,138.13c-1.81,0-3.63,0.01-5.44-0.01c-0.41,0-0.53,0.13-0.52,0.53c0.01,1.49,0.13,2.96,0.67,4.37
		c0.78,2.02,2.59,3.3,4.76,3.38c2.21,0.08,3.98-0.7,5.24-2.55c0.08-0.12,0.27-0.28,0.35-0.25c0.27,0.11,0.51,0.28,0.75,0.46
		c0.02,0.02-0.06,0.21-0.12,0.31c-1.31,2.2-3.25,3.43-5.79,3.66c-2.67,0.24-5.06-0.49-7.08-2.29c-1.61-1.43-2.36-3.29-2.6-5.38
		c-0.2-1.69-0.12-3.38,0.46-4.99c1.15-3.18,3.38-5.1,6.76-5.59c1.54-0.23,3.06-0.1,4.47,0.6c1.87,0.92,3.05,2.45,3.59,4.42
		c0.26,0.94,0.29,1.94,0.45,2.91c0.05,0.34-0.07,0.42-0.39,0.42C78.8,138.13,76.95,138.13,75.1,138.13z M69.21,136.88
		c0.14,0.02,0.19,0.04,0.24,0.04c2.39,0,4.78,0,7.17,0.01c0.27,0,0.38-0.12,0.35-0.37c-0.11-1.04-0.11-2.11-0.35-3.12
		c-0.46-1.94-1.98-2.81-3.93-2.41c-0.73,0.15-1.34,0.5-1.83,1.05C69.67,133.45,69.46,135.15,69.21,136.88z"/>
	<path class="st1" d="M159.83,144.64c0-0.62,0.01-1.24,0-1.86c-0.01-0.26,0.09-0.35,0.35-0.36c1.02-0.04,1.01-0.04,1.38,0.89
		c0.18,0.46,0.39,0.92,0.6,1.37c0.62,1.35,1.73,2,3.17,2.13c0.89,0.08,1.78,0,2.63-0.35c1.09-0.44,1.68-1.24,1.74-2.41
		c0.06-1.05-0.39-1.9-1.28-2.41c-0.72-0.42-1.52-0.69-2.29-1.01c-1.21-0.5-2.46-0.92-3.63-1.48c-1.3-0.62-2.24-1.63-2.54-3.08
		c-0.4-1.92-0.08-3.67,1.54-4.97c0.99-0.79,2.16-1.14,3.4-1.3c2.12-0.26,4.17,0.08,6.18,0.77c0.28,0.1,0.4,0.24,0.39,0.55
		c-0.02,1.07-0.02,2.13,0,3.2c0,0.29-0.08,0.4-0.39,0.41c-0.95,0.01-0.91,0.01-1.33-0.86c-0.32-0.66-0.68-1.32-1.14-1.89
		c-0.53-0.67-1.35-0.86-2.18-0.93c-0.88-0.08-1.73,0-2.53,0.4c-1.56,0.78-1.82,2.88-0.5,4.04c0.72,0.63,1.62,0.9,2.49,1.23
		c1.36,0.52,2.75,0.99,4.07,1.6c1.51,0.69,2.42,1.91,2.63,3.59c0.3,2.39-1.03,4.62-3.27,5.55c-1.76,0.73-3.59,0.82-5.42,0.51
		c-1.27-0.22-2.5-0.65-3.75-0.98c-0.27-0.07-0.35-0.22-0.34-0.5C159.84,145.85,159.83,145.25,159.83,144.64z"/>
	<path class="st1" d="M190.29,143.52c-0.86,1.96-2.12,3.49-4.18,4.14c-2.45,0.78-4.84,0.59-7.08-0.72c-1.95-1.14-3.2-2.86-3.74-5.04
		c-0.61-2.47-0.59-4.95,0.51-7.29c1.31-2.8,3.57-4.41,6.65-4.81c1.78-0.24,3.54-0.1,5.23,0.56c1.1,0.43,2.01,1.06,2.27,2.32
		c0.26,1.25-0.48,2.21-1.76,2.26c-0.55,0.02-1.11-0.01-1.66,0.01c-0.31,0.01-0.39-0.11-0.39-0.4c0.02-0.8-0.01-1.59,0.01-2.39
		c0.01-0.31-0.11-0.49-0.36-0.65c-1.91-1.24-4.69-0.5-5.78,1.55c-0.57,1.07-0.83,2.22-0.95,3.41c-0.18,1.79-0.2,3.58,0.14,5.36
		c0.23,1.17,0.61,2.28,1.43,3.17c1.15,1.26,2.65,1.54,4.27,1.37c1.88-0.19,3.19-1.22,4.07-2.85c0.26-0.48,0.26-0.48,0.76-0.26
		C189.89,143.35,190.06,143.42,190.29,143.52z"/>
	<path class="st1" d="M88.98,133.46c0.51-0.62,0.95-1.21,1.46-1.74c0.93-0.97,2-1.74,3.37-1.96c0.87-0.14,1.73-0.07,2.46,0.51
		c0.74,0.59,0.84,1.4,0.71,2.24c-0.12,0.77-0.57,1.38-1.35,1.56c-0.65,0.15-1.33,0.16-2,0.21c-0.07,0-0.22-0.17-0.23-0.27
		c-0.03-0.29-0.01-0.59-0.01-0.89c0-0.59-0.22-0.83-0.82-0.84c-0.63,0-1.21,0.18-1.7,0.57c-0.91,0.72-1.44,1.67-1.59,2.82
		c-0.05,0.4-0.07,0.81-0.07,1.21c-0.01,2.78,0,5.56,0,8.35c0,0.87,0.2,1.11,1.07,1.28c0.34,0.07,0.69,0.12,1.04,0.16
		c0.49,0.06,0.29,0.43,0.33,0.69c0.04,0.3-0.15,0.32-0.38,0.32c-2.57,0-5.14,0-7.71,0c-0.21,0-0.43,0.01-0.4-0.3
		c0.03-0.28-0.16-0.65,0.35-0.72c0.39-0.05,0.77-0.12,1.15-0.22c0.44-0.11,0.7-0.39,0.72-0.86c0.01-0.19,0.02-0.38,0.02-0.57
		c0-3.46,0-6.91,0-10.37c0-0.22-0.01-0.43-0.04-0.65c-0.08-0.74-0.48-1.18-1.21-1.31c-0.34-0.06-0.7-0.05-1.05-0.11
		c-0.15-0.03-0.41-0.16-0.41-0.24c0-0.29-0.21-0.67,0.23-0.84c0.34-0.13,0.69-0.25,1.03-0.37c1.05-0.38,2.1-0.79,3.17-1.13
		c0.39-0.12,0.83-0.1,1.24-0.09c0.09,0,0.23,0.24,0.25,0.38c0.11,0.88,0.19,1.77,0.28,2.65C88.91,133.09,88.95,133.26,88.98,133.46z
		"/>
	<path class="st0" d="M246.82,131.75c-1.49,0-2.94,0-4.44,0c0,0.19,0,0.34,0,0.49c0,3.85,0,7.7,0.01,11.54
		c0,0.42,0.02,0.84,0.13,1.24c0.36,1.36,2.08,1.8,3.12,0.78c0.44-0.43,0.77-0.96,1.18-1.49c0.24,0.09,0.54,0.2,0.94,0.36
		c-0.3,0.54-0.54,1.08-0.87,1.56c-1.53,2.23-4.52,2.25-6.19,1.39c-1.23-0.63-1.84-1.71-2.03-3.04c-0.06-0.39-0.08-0.78-0.08-1.17
		c-0.01-3.7,0-7.4,0-11.1c0-0.17,0-0.34,0-0.57c-0.68,0-1.32-0.02-1.95,0.01c-0.37,0.02-0.49-0.1-0.48-0.48c0.02-1,0-1.01,0.97-1.18
		c1.72-0.29,2.87-1.24,3.44-2.88c0.18-0.52,0.32-1.06,0.45-1.59c0.06-0.24,0.16-0.33,0.41-0.33c1.17,0.03,0.93-0.14,0.94,0.93
		c0.02,1.12,0,2.24,0,3.36c0,0.15,0,0.29,0,0.49c1.5,0,2.95,0,4.44,0C246.82,130.63,246.82,131.15,246.82,131.75z"/>
	<path class="st1" d="M108.57,144.34c0.25,0.1,0.52,0.2,0.84,0.32c-0.48,1.26-1.16,2.33-2.38,2.92c-1.48,0.71-3.02,0.74-4.5,0.03
		c-1.54-0.74-2.11-2.12-2.13-3.73c-0.03-3.82-0.01-7.64-0.02-11.46c0-0.71,0-0.71-0.69-0.71c-0.47,0-0.95-0.01-1.42,0
		c-0.22,0-0.34-0.07-0.31-0.3c0-0.01,0-0.03,0-0.04c-0.04-1.05-0.05-1.07,0.98-1.25c1.79-0.31,2.93-1.35,3.48-3.06
		c0.14-0.45,0.28-0.9,0.38-1.36c0.06-0.28,0.19-0.37,0.47-0.37c0.98,0.02,0.81-0.09,0.82,0.82c0.01,1.16,0.01,2.32,0,3.48
		c-0.01,0.36,0.1,0.5,0.48,0.49c1.18-0.02,2.35,0.01,3.53-0.02c0.38-0.01,0.48,0.13,0.48,0.49c-0.01,1.12,0,1.12-1.13,1.12
		c-0.97,0-1.95,0.01-2.92,0c-0.31,0-0.43,0.1-0.43,0.42c0.01,3.94,0,7.89,0.01,11.83c0,0.31,0.03,0.62,0.1,0.92
		c0.15,0.65,0.45,1.19,1.16,1.38c0.77,0.21,1.5,0.13,2.07-0.45C107.83,145.38,108.17,144.86,108.57,144.34z"/>
	<path class="st0" d="M248.96,147.67c-0.03-0.05-0.04-0.06-0.04-0.07c-0.1-0.87-0.1-0.87,0.75-1.01c0.29-0.05,0.59-0.09,0.88-0.16
		c0.49-0.13,0.67-0.37,0.7-0.86c0.01-0.13,0.01-0.27,0.01-0.4c0-3.58,0-7.16,0-10.73c0-1.13-0.41-1.6-1.53-1.74
		c-0.41-0.05-0.83-0.08-1.31-0.12c0-0.28-0.02-0.55,0.01-0.83c0.01-0.09,0.13-0.2,0.22-0.23c1.67-0.55,3.33-1.11,5.02-1.6
		c0.43-0.13,0.94-0.02,1.48-0.02c0,0.16,0,0.33,0,0.5c0,4.93,0,9.86,0,14.79c0,0.93,0.19,1.16,1.1,1.33
		c0.3,0.06,0.61,0.09,0.92,0.15c0.5,0.1,0.22,0.5,0.27,0.76c0.05,0.23-0.11,0.29-0.32,0.29c-2.67,0-5.33,0-8-0.01
		C249.07,147.7,249.02,147.68,248.96,147.67z"/>
	<path class="st0" d="M250.82,124.53c0.06-1.29,1.12-2.29,2.38-2.24c1.29,0.05,2.31,1.13,2.25,2.38c-0.07,1.28-1.14,2.29-2.4,2.24
		C251.75,126.87,250.76,125.81,250.82,124.53z"/>
</g>
</svg>
