<?xml version="1.0" encoding="utf-8"?>
<!-- Generator: Adobe Illustrator 26.2.1, SVG Export Plug-In . SVG Version: 6.00 Build 0)  -->
<svg version="1.1" id="katman_1" xmlns="http://www.w3.org/2000/svg" xmlns:xlink="http://www.w3.org/1999/xlink" x="0px" y="0px"
	 viewBox="0 0 345 276" style="enable-background:new 0 0 345 276;" xml:space="preserve">
<style type="text/css">
	.st0{fill-rule:evenodd;clip-rule:evenodd;fill:#B10058;}
	.st1{fill-rule:evenodd;clip-rule:evenodd;fill:#004B93;}
</style>
<g id="Foreground">
	<g>
		<path class="st0" d="M219.8,178.5v-4h-4v4H219.8z M246.8,187.7h67.5v3.2h-67.5v6.9h-2.7l-12.5-10.5l-0.8-0.7l-0.6-0.7l0.1,1.5
			l0.1,1.2v9.2h-3.6v-17h2.7l12,10l1.1,1l0.9,0.9l-0.1-2l0-0.9v-8.9h3.6L246.8,187.7L246.8,187.7z M219.8,197.8v-17h-4v17H219.8z
			 M194.3,175.6h9.5v2.9h-9.5V175.6z M205.3,183.8v1.9l3.8-0.7v-0.4c0-1.4-0.3-2.4-0.9-3c-0.6-0.6-1.7-0.9-3.3-0.9h-11.7
			c-1.7,0-2.8,0.3-3.4,0.9c-0.6,0.6-0.9,1.7-0.9,3.2v9c0,1.6,0.3,2.6,0.9,3.2c0.6,0.5,1.7,0.8,3.4,0.8h11.7c1.7,0,2.8-0.3,3.4-0.8
			c0.6-0.6,0.9-1.7,0.9-3.2v-5.9h-10.3v2.9h6.5v3.8H193v-10.8L205.3,183.8L205.3,183.8z M166.1,197.8h17.6v-3.2h-13.6v-4.2h7.8v-2.9
			h-7.8v-3.8h13.5v-2.9h-17.4V197.8L166.1,197.8z M29.6,187.7h67.5v-2.9c0-1.5,0.3-2.5,0.9-3.2c0.6-0.5,1.7-0.8,3.4-0.9h12.5
			c1.7,0,2.8,0.3,3.3,0.9c0.6,0.5,0.9,1.6,0.9,3.2v9c0,1.5-0.3,2.6-0.9,3.2c-0.6,0.5-1.7,0.8-3.3,0.9h-12.5c-1.6,0-2.8-0.3-3.4-0.8
			c-0.5-0.5-0.8-1.6-0.9-3.2V191H29.6V187.7z M101.1,194.6h13.1v-10.8h-13.1L101.1,194.6L101.1,194.6z M150.3,197.8h4v-7.7l8.8-9.3
			h-4.7l-5.9,6.6l-5.9-6.5h-5.3l8.8,9.4L150.3,197.8L150.3,197.8z M121.3,197.8h18.3v-3.2h-12.1l12.1-12.1v-1.7h-17.1v3h10.7
			L121.3,196V197.8z M108.7,178.5h3.3v-4h-3.3V178.5z M103.2,178.5h3.3v-4h-3.3V178.5z"/>
		<rect x="29.6" y="241.9" class="st0" width="284.8" height="3.2"/>
		<rect x="29.6" y="160.6" class="st1" width="284.8" height="3.2"/>
		<path class="st1" d="M290.5,224.9h-4v-17h4v6.9h23.9v3.2h-23.9V224.9z M57.5,207.9v13.8h11.3v-13.8h4v13c0,1.5-0.3,2.6-0.9,3.2
			c-0.6,0.5-1.7,0.8-3.3,0.9H57.8c-1.7,0-2.8-0.3-3.4-0.8c-0.5-0.5-0.8-1.6-0.9-3.2v-2.9H29.6v-3.2h23.9V208L57.5,207.9L57.5,207.9z
			 M290.5,205.7v-4h-4v4H290.5z M277,210.9v1.9l3.5-0.8v-0.3c0-1.4-0.3-2.4-0.9-2.9c-0.6-0.5-1.7-0.8-3.3-0.8h-9.7
			c-1.7,0-2.8,0.3-3.4,0.9c-0.6,0.6-0.9,1.6-0.9,3.1v1.9c0,1.6,0.3,2.6,0.9,3.2c0.6,0.6,1.7,0.9,3.4,0.9h10.6v3.9h-12v-2l-3.5,0.7
			v0.5c0,1.6,0.3,2.6,0.9,3.2c0.6,0.6,1.7,0.9,3.4,0.9h10.5c1.7,0,2.8-0.3,3.3-0.9c0.6-0.6,0.9-1.7,0.9-3.2v-2.3
			c0-1.6-0.3-2.6-0.9-3.2c-0.6-0.6-1.7-0.9-3.3-0.9h-10.7v-3.6L277,210.9L277,210.9z M110.8,205.7v-4h-4v4H110.8z M214.2,205.7v-4
			h-4v4H214.2z M240.1,224.9h17.6v-3.2h-13.6v-4.2h7.8v-2.9h-7.8v-3.8h13.5v-2.9h-17.4V224.9z M229.1,211h7.8v-3h-19.6v3h7.8v14h4
			L229.1,211L229.1,211z M214.2,224.9v-17h-4v17H214.2z M200.7,210.9v1.9l3.5-0.8v-0.3c0-1.4-0.3-2.4-0.9-2.9
			c-0.6-0.5-1.7-0.8-3.3-0.8h-9.7c-1.7,0-2.8,0.3-3.4,0.9c-0.6,0.6-0.9,1.6-0.9,3.1v1.9c0,1.6,0.3,2.6,0.9,3.2
			c0.6,0.6,1.7,0.9,3.4,0.9h10.6v3.9h-12v-2l-3.5,0.7v0.5c0,1.6,0.3,2.6,0.9,3.2c0.6,0.6,1.7,0.9,3.4,0.9h10.5
			c1.7,0,2.8-0.3,3.3-0.9c0.6-0.6,0.9-1.7,0.9-3.2v-2.3c0-1.6-0.3-2.6-0.9-3.2c-0.6-0.6-1.7-0.9-3.3-0.9h-10.6v-3.6L200.7,210.9
			L200.7,210.9z M161.8,224.9h3.9v-6.4h3.8l6.9,6.4h5.7l-7.8-6.4h2.2c1.4,0,2.3-0.3,2.9-0.8c0.6-0.5,0.9-1.4,0.9-2.5v-4
			c0-1.2-0.3-2.1-0.9-2.5c-0.6-0.5-1.6-0.8-2.9-0.8h-14.5V224.9z M174.6,210.8c0.7,0,1.2,0.1,1.4,0.3c0.3,0.2,0.4,0.5,0.4,1v2.1
			c0,0.5-0.1,0.9-0.4,1c-0.3,0.2-0.7,0.3-1.4,0.3h-8.9v-4.7L174.6,210.8L174.6,210.8z M138.6,224.9h17.6v-3.2h-13.6v-4.2h7.8v-2.9
			h-7.8v-3.8H156v-2.9h-17.4L138.6,224.9L138.6,224.9z M123.6,224.9h2.8l9.4-17h-4l-6.6,12.3l-6.9-12.3h-4.5L123.6,224.9z
			 M110.8,224.9v-17h-4v17H110.8z M79.7,224.9h3.6v-9.2l-0.1-1.2l-0.1-1.5l0.6,0.7l0.8,0.7L97,224.9h2.7v-17h-3.6v8.9l0,0.9l0.1,2
			l-0.9-0.9l-1.1-1l-11.9-10h-2.7V224.9z M64.2,205.7h3.3v-4h-3.3V205.7z M58.7,205.7H62v-4h-3.3V205.7z"/>
	</g>
</g>
<g>
	<path d="M28.4,138.5h287.2V31.8H28.4V138.5z M33.3,36.7h277.4v96.9H33.3V36.7z"/>
	<polygon points="105.3,59.7 105.3,110.5 109.3,111.1 109.3,114 89.5,114 89.5,111.1 93.8,110.5 93.8,87.4 68.6,87.4 68.6,110.5 
		72.5,111.1 72.5,114 53.1,114 53.1,111.1 57,110.5 57,59.7 53.1,59.2 53.1,56.3 72.5,56.3 72.5,59.2 68.6,59.7 68.6,81.4 
		93.8,81.4 93.8,59.7 89.5,59.2 89.5,56.3 109.3,56.3 109.3,59.2 	"/>
	<polygon points="132.2,110.9 135.9,111.4 135.9,114 117.7,114 117.7,111.4 121.5,110.9 121.5,76.1 117.7,75.6 117.7,72.9 
		132.2,72.9 	"/>
	<polygon points="143.7,111.5 147.4,111 147.4,59.4 143.7,58.9 143.7,56.3 158.2,56.3 158.2,111 161.9,111.5 161.9,114 143.7,114 	
		"/>
	<path d="M183.9,73h9.7v3.9h-9.7v24.4c0,6.3,1.3,8.3,7.1,8.3c2.1,0,4,0,5.8-0.4v2.8c-5.2,1.8-9.6,2.6-13.4,2.6
		c-8.3,0-10.3-3.8-10.3-11V76.8h-7.6V73h7.9v-8.6l10.5-3.2V73z"/>
	<path d="M230.5,93.6c0-13-3.9-18.7-10.2-18.7c-6.1,0-10,5.4-10,18.7c0,13.1,3.9,18.5,10,18.5C226.9,112.1,230.5,106.9,230.5,93.6
		 M242.4,93.9c0,12.8-8.7,21.4-22.3,21.4c-13.2,0-21.6-5.6-21.6-21.4c0-13.2,8.7-22.1,22.3-22.1C234.2,71.8,242.4,79.8,242.4,93.9"
		/>
	<path d="M291.5,111.4v2.6h-18.1v-2.6l3.6-0.5V87.5c0-6.5-2.4-9.4-7.3-9.4c-2.3,0-5.9,1.6-8.6,3.4v29.3l3.7,0.5v2.6h-18.2v-2.6
		l3.7-0.5V76.4l-3.7-0.5V73h14.5v5.7c4.5-3.6,8.8-6.5,14.9-6.5c8.1,0,11.8,4.7,11.8,14v24.7L291.5,111.4z"/>
	<path d="M132.7,62.1c0,3.2-2.6,5.8-5.8,5.8c-3.2,0-5.8-2.6-5.8-5.8c0-3.2,2.6-5.8,5.8-5.8C130.1,56.3,132.7,58.9,132.7,62.1"/>
</g>
</svg>
