<svg id="katman_1" data-name="katman 1" xmlns="http://www.w3.org/2000/svg" xmlns:xlink="http://www.w3.org/1999/xlink" viewBox="0 0 345 276"><defs><style>.cls-1{fill:none;}.cls-2{clip-path:url(#clip-path);}.cls-3{fill:url(#linear-gradient);}.cls-4{fill:#ed296e;}.cls-5{fill:#a93693;}.cls-6{fill:#ed3435;}.cls-7{fill:#2ebcbb;}.cls-8{fill:#0b8fba;}.cls-9{fill:#583c96;}.cls-10{fill:#2ab35b;}.cls-11{fill:#2f3c7e;}.cls-12{fill:#8f2f7a;}.cls-13{fill:#507549;}.cls-14{fill:#f37732;}.cls-15{fill:#faac32;}.cls-16{fill:#fff;}.cls-17{fill:#5a595c;}</style><clipPath id="clip-path"><path class="cls-1" d="M79.11,82.65l55.08,46.11a22.74,22.74,0,0,0,7.57-5.33,21.64,21.64,0,0,1,25.51-4.31A47.87,47.87,0,0,0,79.11,82.65"/></clipPath><linearGradient id="linear-gradient" x1="-129.14" y1="577.39" x2="-126.41" y2="577.39" gradientTransform="translate(4354.13 -19021.06) scale(33.1)" gradientUnits="userSpaceOnUse"><stop offset="0" stop-color="#2874ba"/><stop offset="0.52" stop-color="#118bcb"/><stop offset="1" stop-color="#009cd8"/></linearGradient></defs><g class="cls-2"><rect class="cls-3" x="79.11" y="56.73" width="90.41" height="72.03"/></g><path class="cls-4" d="M73.77,104.6c0,1.48.06,2.94.2,4.38H41.26l6.48-37a8,8,0,0,1,12.92-4.73L79.11,82.65a47.44,47.44,0,0,0-5.34,21.95"/><path class="cls-5" d="M134.19,128.76a22.38,22.38,0,0,1-2.49.93,22.64,22.64,0,0,1-6.61,1,22.94,22.94,0,0,1-14.55-5.24v-8.5a8,8,0,0,0-8-8H74c-.14-1.44-.21-2.9-.21-4.37a47.42,47.42,0,0,1,5.35-22Z"/><path class="cls-6" d="M109.34,150.87c.4.11.8.22,1.2.31v-.75Z"/><path class="cls-7" d="M163.73,158.91c-.65.2-1.34.39-2,.53s-1.44.34-2.13.55A22.66,22.66,0,0,0,144.2,186.9a26.37,26.37,0,0,1-50.89,13.7,31,31,0,0,1-.89-3.57h10.17a8,8,0,0,0,8-8V151.18a47.91,47.91,0,0,0,56.73-32.06,21.55,21.55,0,0,1-3.54,39.79"/><path class="cls-8" d="M167.27,119.12a47.9,47.9,0,0,1-56.72,32.06v-.75l21.56-7.88A7.94,7.94,0,0,0,134.49,129l-.29-.24a22.9,22.9,0,0,0,7.56-5.33,21.68,21.68,0,0,1,25.51-4.31"/><path class="cls-9" d="M132.11,142.55l-21.57,7.88v-25a22.94,22.94,0,0,0,14.55,5.24,22.69,22.69,0,0,0,6.61-1,23.32,23.32,0,0,0,2.5-.93l.29.24a7.94,7.94,0,0,1-2.38,13.55"/><path class="cls-6" d="M109.34,150.87c.4.11.8.22,1.2.31v-.75Z"/><path class="cls-10" d="M110.54,151.18v37.89a8,8,0,0,1-8,8H92.42a22.51,22.51,0,0,1,2.69-16.19,21.74,21.74,0,0,0,1.34-16.55A22.58,22.58,0,0,0,92.64,157l16.7-6.1c.4.11.8.22,1.2.31"/><path class="cls-11" d="M110.54,125.44v25l-1.2.44a48.08,48.08,0,0,1-29.79-23.46,18.08,18.08,0,0,1,28.93-3.89,23.3,23.3,0,0,0,2.06,1.92"/><path class="cls-12" d="M110.54,116.94v8.5a23.3,23.3,0,0,1-2.06-1.92,17.9,17.9,0,0,0-13-5.56,18.22,18.22,0,0,0-5.33.79,17.93,17.93,0,0,0-10.57,8.66A47.44,47.44,0,0,1,74,109h28.62a7.94,7.94,0,0,1,8,8"/><path class="cls-13" d="M109.34,150.87,92.64,157a22.59,22.59,0,0,0-6.33-5.53,17.91,17.91,0,0,1-6.76-24,48.08,48.08,0,0,0,29.79,23.46"/><path class="cls-14" d="M92.64,157,41.69,175.59a7.93,7.93,0,0,1-10.54-8.83L41.26,109H74a47.33,47.33,0,0,0,5.59,18.42,17.9,17.9,0,0,0,6.75,24A22.6,22.6,0,0,1,92.64,157"/><path class="cls-15" d="M95.11,180.84A22.56,22.56,0,0,0,92.42,197h-62a8,8,0,0,1-8-8V116.94a8,8,0,0,1,8-8h10.8L31.15,166.76a7.93,7.93,0,0,0,10.54,8.83l51-18.61a22,22,0,0,1,3.8,7.31,21.69,21.69,0,0,1-1.33,16.55"/><path class="cls-16" d="M147.7,109H131.17l-22.24,58h14.45l4.39-12.18h23l2.88,8a22.7,22.7,0,0,1,5.92-2.8c.69-.21,1.44-.42,2.13-.56a20.09,20.09,0,0,0,2-.52,20.78,20.78,0,0,0,2.73-1Zm-15.45,33.3,7-19.55,7,19.55Z"/><path class="cls-16" d="M106.71,142.12a16.08,16.08,0,0,0,4.16-6,20.77,20.77,0,0,0,1.41-7.79,21.48,21.48,0,0,0-1.41-7.93,16.14,16.14,0,0,0-4.16-6.11,19,19,0,0,0-6.86-3.91A29.39,29.39,0,0,0,90.37,109H65.52v58H79.35V147.36H90.49A29.52,29.52,0,0,0,99.9,146a19,19,0,0,0,6.81-3.87m-10.64-8.81a9.24,9.24,0,0,1-5.91,1.7H79.35v-13.5H90.16a9.18,9.18,0,0,1,5.91,1.72,6.14,6.14,0,0,1,2.13,5.07,6,6,0,0,1-2.13,5"/><path class="cls-16" d="M42.38,103.35A8,8,0,0,0,45,105.06a8.23,8.23,0,0,0,3.23.63,8.11,8.11,0,0,0,3.22-.63A8,8,0,0,0,54,103.35a7.79,7.79,0,0,0,1.72-2.57,8,8,0,0,0,.62-3.17,8.19,8.19,0,0,0-.62-3.23A7.67,7.67,0,0,0,54,91.79a8.41,8.41,0,0,0-2.56-1.74,8,8,0,0,0-3.22-.64,8.06,8.06,0,0,0-3.23.64c-.15.07-.54.32-.69.39L42.05,103l.33.37"/><polygon class="cls-16" points="55.08 108.96 41.26 108.96 41.26 108.98 41.25 108.98 41.25 166.95 55.08 166.95 55.08 108.96"/><path class="cls-17" d="M197.77,130.43h-5V109.55h5Zm-4.57-22.9a2.71,2.71,0,0,0,.93.62,3,3,0,0,0,1.16.22,2.92,2.92,0,0,0,1.16-.22,2.77,2.77,0,0,0,.92-.62,3,3,0,0,0,.63-.92,3,3,0,0,0,.22-1.14,3.15,3.15,0,0,0-.22-1.16,2.89,2.89,0,0,0-.63-.93,2.79,2.79,0,0,0-.92-.63,2.93,2.93,0,0,0-1.16-.23,3,3,0,0,0-1.16.23,2.73,2.73,0,0,0-.93.63,2.86,2.86,0,0,0-.62.93,3,3,0,0,0-.22,1.16,2.86,2.86,0,0,0,.22,1.14,2.93,2.93,0,0,0,.62.92m15.6,19.26a3.89,3.89,0,0,1-1.56.24,10.16,10.16,0,0,1-2.8-.36,9.74,9.74,0,0,1-2.36-1l-1.63,3.61a7.72,7.72,0,0,0,1.41.7,11.87,11.87,0,0,0,1.66.47,16.71,16.71,0,0,0,1.81.28c.62.06,1.25.09,1.88.09a10.79,10.79,0,0,0,2.85-.35,6.21,6.21,0,0,0,2.13-1,4.48,4.48,0,0,0,1.33-1.61,5,5,0,0,0,.45-2.15,3.85,3.85,0,0,0-1.21-3,6.77,6.77,0,0,0-3.57-1.47l-1.08-.16a13.24,13.24,0,0,1-1.71-.35c-.43-.12-.64-.34-.64-.65a.73.73,0,0,1,.39-.64,2.49,2.49,0,0,1,1.31-.25,7,7,0,0,1,1.18.1c.42.06.83.14,1.25.24s.83.22,1.24.36.79.28,1.14.43l1.3-3.63c-.6-.23-1.15-.43-1.66-.59s-1-.28-1.5-.39a14.64,14.64,0,0,0-1.48-.21c-.5,0-1.06-.07-1.65-.07a10,10,0,0,0-2.67.33,5.94,5.94,0,0,0-2,1,4.08,4.08,0,0,0-1.23,1.54,4.76,4.76,0,0,0-.43,2.07,4,4,0,0,0,1.25,3.1,7.43,7.43,0,0,0,3.91,1.51l.85.12a9.36,9.36,0,0,1,1.77.4c.36.14.54.35.54.64a.77.77,0,0,1-.48.72m9-2a8.73,8.73,0,0,0,.33,2.49,4.83,4.83,0,0,0,1,1.89,4.61,4.61,0,0,0,1.77,1.21,7,7,0,0,0,2.55.42,10,10,0,0,0,1.61-.12,8.73,8.73,0,0,0,1.36-.33,8.83,8.83,0,0,0,1.17-.52,9.59,9.59,0,0,0,1.05-.65l-1.61-3.64a11.54,11.54,0,0,1-1.22.62,3.31,3.31,0,0,1-1.32.29,3.07,3.07,0,0,1-.82-.11,1.71,1.71,0,0,1-.65-.38,1.78,1.78,0,0,1-.44-.7,3,3,0,0,1-.16-1.06v-4.28h5V115.8h-5v-4.27h-4.66v4.27h-2.73v4.13h2.73Zm12.08,1.32a8.61,8.61,0,0,1-.52-3,8.5,8.5,0,0,1,.52-3,7.62,7.62,0,0,1,1.42-2.45,6.8,6.8,0,0,1,2.16-1.64,6.3,6.3,0,0,1,2.72-.59,5,5,0,0,1,4.19,2V115.8h4.51v14.63h-4.51v-1.59a5.43,5.43,0,0,1-1.69,1.42,5.27,5.27,0,0,1-2.52.55,6.27,6.27,0,0,1-2.7-.59,6.8,6.8,0,0,1-2.16-1.64,7.66,7.66,0,0,1-1.42-2.46m4.28-3a3.83,3.83,0,0,0,.23,1.33,3.19,3.19,0,0,0,.63,1.07,2.7,2.7,0,0,0,1,.7,3.21,3.21,0,0,0,2.53,0,2.75,2.75,0,0,0,1-.7,3.21,3.21,0,0,0,.65-1,3.9,3.9,0,0,0,.23-1.35,3.79,3.79,0,0,0-.23-1.33,3.15,3.15,0,0,0-.65-1.06A3.19,3.19,0,0,0,236,120a2.85,2.85,0,0,0-1,.71,3.19,3.19,0,0,0-.63,1.07,3.81,3.81,0,0,0-.23,1.32m23.34-.62v8h4.66v-9.6a6.06,6.06,0,0,0-.4-2.28,5.19,5.19,0,0,0-1.1-1.71,4.81,4.81,0,0,0-1.64-1.07,5.49,5.49,0,0,0-2-.37,5.82,5.82,0,0,0-2.56.53,4.29,4.29,0,0,0-1.79,1.7V115.8h-4.47v14.63h4.66v-7.87a3.76,3.76,0,0,1,.19-1.24,2.47,2.47,0,0,1,.51-.87,2,2,0,0,1,.76-.51,2.45,2.45,0,0,1,.91-.16,2.11,2.11,0,0,1,1.7.7,2.9,2.9,0,0,1,.62,2m22.83-2.4a8.73,8.73,0,0,1,.51,3,8.84,8.84,0,0,1-.51,3,7.88,7.88,0,0,1-1.43,2.46,6.69,6.69,0,0,1-2.16,1.64,6.36,6.36,0,0,1-2.72.59,5.28,5.28,0,0,1-2.5-.54,5.36,5.36,0,0,1-1.68-1.41v1.57h-4.51V109H270v8.24a4.93,4.93,0,0,1,4-1.8,6.36,6.36,0,0,1,2.72.59,6.69,6.69,0,0,1,2.16,1.64,7.83,7.83,0,0,1,1.43,2.45m-4.29,3a3.81,3.81,0,0,0-.22-1.32,3.21,3.21,0,0,0-.64-1.07,2.85,2.85,0,0,0-1-.71,3.18,3.18,0,0,0-1.28-.25,3,3,0,0,0-1.26.25,2.91,2.91,0,0,0-1,.71,3.15,3.15,0,0,0-.65,1.06,3.79,3.79,0,0,0-.23,1.33,3.9,3.9,0,0,0,.23,1.35,3.21,3.21,0,0,0,.65,1,2.63,2.63,0,0,0,1,.7,2.9,2.9,0,0,0,1.26.26,3,3,0,0,0,1.28-.26,2.7,2.7,0,0,0,1-.7,3.21,3.21,0,0,0,.64-1.07,3.83,3.83,0,0,0,.22-1.33m9.26,6.1a6.1,6.1,0,0,0,2.26,1.22,9.86,9.86,0,0,0,5.49,0,6.17,6.17,0,0,0,2.24-1.22,5.72,5.72,0,0,0,1.52-2.07,7.47,7.47,0,0,0,.54-3V115.8h-4.64v8a3.57,3.57,0,0,1-.18,1.2,2.45,2.45,0,0,1-.5.85,2,2,0,0,1-.76.49,2.82,2.82,0,0,1-1.93,0,2,2,0,0,1-.76-.49,2.44,2.44,0,0,1-.49-.85,3.32,3.32,0,0,1-.19-1.2v-8h-4.66v8.35a7.32,7.32,0,0,0,.55,3,5.65,5.65,0,0,0,1.51,2.08m15.23,1.23h4.67V109h-4.67Zm-107.78,6.85h8.94a10.72,10.72,0,0,1,3.42.5,6.65,6.65,0,0,1,2.46,1.41,5.68,5.68,0,0,1,1.5,2.2,7.69,7.69,0,0,1,.51,2.85,7.48,7.48,0,0,1-.51,2.81,5.54,5.54,0,0,1-1.5,2.16,6.59,6.59,0,0,1-2.45,1.4,10.51,10.51,0,0,1-3.38.49h-4v7.06h-5Zm5,9.38h3.89a3.33,3.33,0,0,0,2.13-.61,2.55,2.55,0,0,0,0-3.63,3.28,3.28,0,0,0-2.13-.62h-3.89Zm14.4,11.5h4.67V136.69h-4.67Zm11.25-.22a6.39,6.39,0,0,1-2.15-1.64,7.53,7.53,0,0,1-1.43-2.45,9.06,9.06,0,0,1,0-6,7.7,7.7,0,0,1,1.43-2.44,6.66,6.66,0,0,1,2.15-1.64,6.33,6.33,0,0,1,2.72-.59,5,5,0,0,1,4.19,2v-1.58h4.51v14.63H230.3v-1.59a5.43,5.43,0,0,1-1.69,1.42,5.25,5.25,0,0,1-2.52.55,6.14,6.14,0,0,1-2.7-.6m.71-7.11a3.83,3.83,0,0,0,.22,1.33,3.36,3.36,0,0,0,.63,1.07,2.92,2.92,0,0,0,1,.7,3.21,3.21,0,0,0,2.53,0,2.92,2.92,0,0,0,1-.7,3,3,0,0,0,.65-1.06,3.8,3.8,0,0,0,.23-1.34,3.89,3.89,0,0,0-.23-1.34,3.19,3.19,0,0,0-.65-1.06,3.21,3.21,0,0,0-3.52-.7,3,3,0,0,0-1,.71,3.26,3.26,0,0,0-.63,1.07,3.77,3.77,0,0,0-.22,1.32m18.64-.55a3.8,3.8,0,0,1,.19-1.24,2.39,2.39,0,0,1,.52-.86,2,2,0,0,1,.75-.51,2.51,2.51,0,0,1,.92-.16,2.13,2.13,0,0,1,1.69.69,3,3,0,0,1,.62,2v7.95h4.66v-9.61a6,6,0,0,0-.4-2.27,5.33,5.33,0,0,0-1.09-1.71A4.85,4.85,0,0,0,249,143.5a5.49,5.49,0,0,0-2-.37,5.71,5.71,0,0,0-2.56.53,4.35,4.35,0,0,0-1.79,1.7v-1.83h-4.47v14.63h4.66Zm17.19-13.59h-4.66v21.46h4.66Zm13.5,6.84h4.51v14.63h-4.51v-1.59a5.25,5.25,0,0,1-1.7,1.42,5.18,5.18,0,0,1-2.51.55,6.14,6.14,0,0,1-2.7-.6,6.52,6.52,0,0,1-2.16-1.64,7.51,7.51,0,0,1-1.42-2.45,9.06,9.06,0,0,1,0-6,7.67,7.67,0,0,1,1.42-2.44,6.8,6.8,0,0,1,2.16-1.64,6.3,6.3,0,0,1,2.72-.59,5,5,0,0,1,4.19,2Zm0,7.3a3.89,3.89,0,0,0-.23-1.34,3.36,3.36,0,0,0-.65-1.06,3.18,3.18,0,0,0-1-.7,3,3,0,0,0-1.26-.25,3.14,3.14,0,0,0-1.28.25,2.91,2.91,0,0,0-1,.71,3.09,3.09,0,0,0-.63,1.07,3.77,3.77,0,0,0-.23,1.32,3.83,3.83,0,0,0,.23,1.33,3.19,3.19,0,0,0,.63,1.07,2.88,2.88,0,0,0,1,.7,3.15,3.15,0,0,0,1.28.26,3.05,3.05,0,0,0,1.26-.26,3,3,0,0,0,1-.7,3.15,3.15,0,0,0,.65-1.06,3.8,3.8,0,0,0,.23-1.34m29.64-6.26a5,5,0,0,0-1.72-1.07,6.47,6.47,0,0,0-2.27-.37,5.89,5.89,0,0,0-2.7.59,4.63,4.63,0,0,0-1.93,1.85,4.64,4.64,0,0,0-1.84-1.81,5.43,5.43,0,0,0-2.62-.63,5.68,5.68,0,0,0-2.56.53,4.35,4.35,0,0,0-1.79,1.7v-1.83H281.2v14.63h4.67v-7.88a3.55,3.55,0,0,1,.19-1.24,2.52,2.52,0,0,1,.51-.86,2.09,2.09,0,0,1,.75-.51,2.54,2.54,0,0,1,.92-.16,2.15,2.15,0,0,1,1.7.69,3,3,0,0,1,.62,2v7.95h4.66v-7.88a3.55,3.55,0,0,1,.19-1.24,2.7,2.7,0,0,1,.52-.86,1.93,1.93,0,0,1,.75-.51,2.53,2.53,0,0,1,.91-.16,2.14,2.14,0,0,1,1.71.69,3,3,0,0,1,.62,2v7.95h4.66v-9.61a6.47,6.47,0,0,0-.38-2.27,4.73,4.73,0,0,0-1.09-1.71m19.39-1v14.63H318v-1.59a5,5,0,0,1-4.2,2,6.08,6.08,0,0,1-2.7-.6,6.33,6.33,0,0,1-2.16-1.64,7.71,7.71,0,0,1-1.43-2.45,9.23,9.23,0,0,1,0-6,7.89,7.89,0,0,1,1.43-2.44,6.59,6.59,0,0,1,2.16-1.64,6.25,6.25,0,0,1,2.71-.59,5.12,5.12,0,0,1,2.51.56,5,5,0,0,1,1.68,1.42v-1.58Zm-4.47,7.3a3.89,3.89,0,0,0-.23-1.34,3.36,3.36,0,0,0-.65-1.06,3.18,3.18,0,0,0-1-.7,3.08,3.08,0,0,0-1.26-.25,3.14,3.14,0,0,0-1.28.25,2.91,2.91,0,0,0-1,.71,3.28,3.28,0,0,0-.64,1.07,4,4,0,0,0-.22,1.32,4.08,4.08,0,0,0,.22,1.33,3.39,3.39,0,0,0,.64,1.07,2.88,2.88,0,0,0,1,.7,3.15,3.15,0,0,0,1.28.26,3.09,3.09,0,0,0,1.26-.26,3,3,0,0,0,1-.7,3.15,3.15,0,0,0,.65-1.06,3.8,3.8,0,0,0,.23-1.34m-105,35H207.7l-1.58-4.38h-8.29l-1.58,4.38H191l8-20.87H205Zm-8.5-8.88L202,170l-2.53,7Zm14.62-12.23a2.5,2.5,0,0,0-.89-.6,2.84,2.84,0,0,0-2.19,0,2.55,2.55,0,0,0-.88.6,2.67,2.67,0,0,0-.59.88,2.7,2.7,0,0,0-.22,1.1,2.62,2.62,0,0,0,.22,1.09,2.74,2.74,0,0,0,1.47,1.47,2.84,2.84,0,0,0,3.08-.59,2.67,2.67,0,0,0,.59-.88,2.79,2.79,0,0,0,.22-1.09,2.88,2.88,0,0,0-.22-1.1,2.67,2.67,0,0,0-.59-.88m-4.27,21.78a1.48,1.48,0,0,1-.28,1,.93.93,0,0,1-.71.3,3.75,3.75,0,0,1-.5,0l-.44-.11-.45,4.12.48.15.59.11.61.07.56,0a5.16,5.16,0,0,0,2-.36,3.94,3.94,0,0,0,1.5-1,4.65,4.65,0,0,0,1-1.67,7,7,0,0,0,.34-2.28v-15.6h-4.64ZM233,171.25h4.51v14.63H233V184.3a5.25,5.25,0,0,1-1.7,1.42,5.18,5.18,0,0,1-2.51.55,6.14,6.14,0,0,1-2.7-.6,6.52,6.52,0,0,1-2.16-1.64,7.51,7.51,0,0,1-1.42-2.45,8.63,8.63,0,0,1-.52-3,8.54,8.54,0,0,1,.52-3,7.67,7.67,0,0,1,1.42-2.44,6.66,6.66,0,0,1,2.16-1.64,6.3,6.3,0,0,1,2.72-.59,5.19,5.19,0,0,1,2.5.55,5.26,5.26,0,0,1,1.69,1.43Zm0,7.31a3.85,3.85,0,0,0-.23-1.34,3.36,3.36,0,0,0-.65-1.06,3.18,3.18,0,0,0-1-.7,3.33,3.33,0,0,0-2.53,0,2.85,2.85,0,0,0-1,.71,3.09,3.09,0,0,0-.63,1.07,3.77,3.77,0,0,0-.23,1.32,3.83,3.83,0,0,0,.23,1.33,3,3,0,0,0,.63,1.06,2.73,2.73,0,0,0,1,.71,3.33,3.33,0,0,0,2.53,0,3,3,0,0,0,1-.7,3.25,3.25,0,0,0,.65-1.06,3.8,3.8,0,0,0,.23-1.34m20.25-6.26a4.66,4.66,0,0,0-1.64-1.07,5.49,5.49,0,0,0-2.05-.37,5.68,5.68,0,0,0-2.56.53,4.29,4.29,0,0,0-1.79,1.7v-1.84h-4.47v14.63h4.66V178a3.55,3.55,0,0,1,.19-1.24,2.69,2.69,0,0,1,.51-.86,2.12,2.12,0,0,1,.76-.51,2.45,2.45,0,0,1,.91-.16,2.14,2.14,0,0,1,1.7.69,2.93,2.93,0,0,1,.62,2v7.94h4.66v-9.6a6.25,6.25,0,0,0-.4-2.27,5.19,5.19,0,0,0-1.1-1.71m12.59,4.38-1.07-.16a15,15,0,0,1-1.72-.35c-.42-.13-.64-.34-.64-.65a.75.75,0,0,1,.39-.65,2.64,2.64,0,0,1,1.31-.24,8.25,8.25,0,0,1,1.19.09c.41.07.82.15,1.24.25s.83.22,1.24.36.79.28,1.15.43l1.29-3.64c-.59-.23-1.14-.42-1.66-.58a15.1,15.1,0,0,0-1.5-.39,14.25,14.25,0,0,0-1.48-.21c-.5-.05-1.05-.07-1.65-.07a10,10,0,0,0-2.67.33,5.7,5.7,0,0,0-2,1,4,4,0,0,0-1.24,1.54,4.7,4.7,0,0,0-.43,2.07,4,4,0,0,0,1.25,3.1,7.52,7.52,0,0,0,3.91,1.51l.85.12a8.76,8.76,0,0,1,1.78.4c.35.14.53.35.53.64a.78.78,0,0,1-.48.72,3.92,3.92,0,0,1-1.56.23,10.62,10.62,0,0,1-2.8-.35,10.15,10.15,0,0,1-2.36-1l-1.62,3.61a6.76,6.76,0,0,0,1.4.69,13.93,13.93,0,0,0,1.66.48,14.58,14.58,0,0,0,1.81.27c.63.06,1.25.09,1.88.09a10.81,10.81,0,0,0,2.85-.34,6.54,6.54,0,0,0,2.14-1,4.35,4.35,0,0,0,1.32-1.61,5,5,0,0,0,.46-2.15,3.84,3.84,0,0,0-1.22-3,6.69,6.69,0,0,0-3.57-1.47m7.25,9.2h4.66V171.26h-4.66Z"/></svg>