<?xml version="1.0" encoding="utf-8"?>
<!-- Generator: Adobe Illustrator 26.1.0, SVG Export Plug-In . SVG Version: 6.00 Build 0)  -->
<svg version="1.1" id="Layer_1" xmlns="http://www.w3.org/2000/svg" xmlns:xlink="http://www.w3.org/1999/xlink" x="0px" y="0px"
	 viewBox="0 0 345 276" style="enable-background:new 0 0 345 276;" xml:space="preserve">
<style type="text/css">
	.st0{fill:#231F20;}
	.st1{fill:#EC2227;}
</style>
<g id="Layer_2_00000083048024619823064270000005297344954448637857_">
	<g id="Layer_1-2_00000069386551845691669430000015863484092433390218_">
		<path class="st0" d="M79.7,87.3l27.8,61.3h-8.5l-19-44.2l-19.5,44.2H49.6l-24-28.7h-1v29.2h-9.2V87.5l9.4,0.1v26.2h1l22.5-25.9
			h9.3L33.1,116v1.4l21.8,24.8L79.7,87.3z M171.2,63.5c-3.8,0-6.9,3.1-6.9,6.9c0,3.8,3.1,6.9,6.9,6.9s6.9-3.1,6.9-6.9l0,0
			C178.2,66.6,175.1,63.5,171.2,63.5L171.2,63.5z M310.1,121.4c0,0,14.9,0.3,15.4-17c0-5.9-4.3-14.6-13.7-16.7
			c-8.6-0.2-24.8-0.2-24.8-0.2v61.1h7.8V94.2h12.4c0,0,10.4-0.8,10.4,9.8s-8.1,10.9-8.1,10.9h-12l22.5,33.6h9.5L310.1,121.4z
			 M253.2,122.3H275v-7.2h-21.7V95h22.4v-7.3L245,87.8v61.1h31.1v-7.8h-22.9L253.2,122.3L253.2,122.3z M211.3,87.9h-13.2v7.4h12.8
			c0,0,17.3,1,17.3,22.8S209.4,141,209.4,141h-12.3v-25.9l-7.4,0.2v33.6h19.8c0,0,27.4-2.7,27.4-30.4S211.3,87.9,211.3,87.9z
			 M171.2,113.7c-4.2,0-4.4,4.2-4.4,4.2v30.7h8.9V118C175.7,118.1,175.4,113.7,171.2,113.7L171.2,113.7z M144.4,141l-10.5,0.2
			c0,0-19.9-1.1-20.3-22c0-22.5,16.9-24,16.9-24h13.2v-7.1h-13.4c-14.2,0.6-29.4,16.4-24.7,37c6,22.9,27.2,23.8,27.2,23.8h19.9
			v-33.6h-8.4L144.4,141L144.4,141z"/>
		<path class="st1" d="M166.9,94.7l-23.6,11.3l28-26.1l27.6,26.2l-23.8-11.6V107c0,0,0.4,4.2-3.8,4.2s-4.4-2.1-4.4-3.7L166.9,94.7
			L166.9,94.7z M18.5,194.4c-1.4,1.5-2.3,3.5-2.2,5.6c-0.1,2.2,0.8,4.3,2.4,5.9c1.5,1.5,3.5,2.4,5.7,2.4c1.8,0.1,3.6-0.7,4.9-2
			c1.3-1.3,2.1-3.1,2-5V200h-5.7v1.8h3.7c0,1.2-0.5,2.3-1.3,3.1c-0.9,0.9-2.2,1.3-3.4,1.3c-1.6,0.1-3.1-0.6-4.2-1.7
			c-1.1-1.2-1.7-2.8-1.6-4.4c-0.1-1.5,0.5-3,1.5-4.2c1-1.2,2.5-1.8,4-1.8c2-0.1,3.8,0.9,4.9,2.5l1.5-1.3c-0.7-0.8-1.6-1.5-2.5-2.1
			c-1.2-0.7-2.6-1-4-1C21.8,192,19.9,192.8,18.5,194.4z M39.7,207.8h2v-12.4h-2V207.8z M40.7,194.2c0.8,0,1.4-0.6,1.4-1.4
			c0-0.4-0.2-0.7-0.4-1c-0.6-0.5-1.4-0.5-2,0c-0.3,0.3-0.4,0.6-0.4,1s0.2,0.7,0.4,1C40,194,40.3,194.2,40.7,194.2L40.7,194.2z
			 M52.8,201.2c0-0.9,0.2-1.8,0.5-2.6c0.3-0.9,1.2-1.5,2.2-1.5c0.5,0,0.9,0.1,1.4,0.3l0.5-2c-0.5-0.2-0.9-0.2-1.4-0.3
			c-1.4,0-2.6,0.8-3.2,2v-1.7h-2v12.4h2V201.2z M65.8,194.2c0.4,0,0.7-0.2,1-0.4c0.5-0.5,0.5-1.4,0-2c-0.3-0.3-0.6-0.4-1-0.4
			c-0.8,0-1.4,0.6-1.4,1.4S65,194.2,65.8,194.2L65.8,194.2L65.8,194.2z M64.8,207.8h2v-12.4h-2V207.8z M90.9,207.8h2v-12.4h-2V207.8
			z M91.9,194.2c0.8,0,1.4-0.6,1.4-1.4c0-0.4-0.2-0.7-0.4-1c-0.3-0.3-0.6-0.4-1-0.4c-0.8,0-1.4,0.6-1.4,1.4
			C90.5,193.5,91.2,194.2,91.9,194.2L91.9,194.2z M109.2,199.4v8.3h2v-8.1c-0.1-1.5,1.1-2.7,2.6-2.8c0.1,0,0.2,0,0.3,0
			c1.5,0,2.3,0.8,2.3,2.5v8.4h2v-8.9c0.1-1-0.4-2.1-1.1-2.8s-1.8-1.1-2.9-1.1c-1.3,0-2.5,0.7-3.6,2c-0.3-0.6-0.8-1-1.3-1.4
			c-0.6-0.4-1.3-0.6-2.1-0.5c-1.4-0.1-2.8,0.7-3.5,1.9v-1.6h-2v12.4h2v-7.6c-0.1-0.8,0.2-1.6,0.7-2.3c0.6-0.7,1.5-1.1,2.4-1.1
			C108.5,196.9,109.2,197.7,109.2,199.4L109.2,199.4z M137.1,206.8v-2.4c-0.9,1.1-2.3,1.8-3.7,1.8c-1.2,0.1-2.4-0.4-3.3-1.3
			c-0.9-0.9-1.4-2.1-1.3-3.3c0-1.2,0.4-2.4,1.2-3.2c0.9-0.9,2.1-1.4,3.3-1.4c1.4-0.1,2.8,0.6,3.7,1.7v-2.4c-3-2.1-7.1-1.3-9.1,1.7
			c-1.8,2.6-1.5,6.1,0.7,8.3c1.2,1.2,2.8,1.9,4.5,1.9C134.5,208.1,135.9,207.7,137.1,206.8L137.1,206.8z M146.9,194.2
			c0.8,0,1.4-0.6,1.4-1.3l0,0c0-0.8-0.6-1.4-1.4-1.4c-0.8,0-1.4,0.6-1.4,1.4c0,0.4,0.2,0.7,0.4,1
			C146.1,194.1,146.5,194.2,146.9,194.2L146.9,194.2z M147.8,195.3h-2v12.4h2V195.3z M158.9,207.8v-15.5h-2v15.5H158.9z M179,201.9
			h-9.8c-0.1,1.1,0.4,2.3,1.1,3.1c1.3,1.6,3.6,1.8,5.3,0.6c0.6-0.4,1.1-1,1.4-1.7l1.7,0.9c-0.5,0.9-1.2,1.7-2.1,2.3
			c-2.5,1.7-5.8,1.3-7.8-0.9c-2.2-2.7-2.2-6.5,0-9.1c1.1-1.3,2.7-2,4.4-2c1.6-0.1,3.2,0.7,4.3,2C178.6,198.4,179.1,200.1,179,201.9
			L179,201.9z M177,200.3c-0.1-0.9-0.4-1.8-1-2.5c-0.7-0.7-1.7-1.1-2.7-1.1c-1,0-2,0.4-2.7,1.1c-0.7,0.7-1.1,1.5-1.2,2.5H177z
			 M189.4,201.2c0-0.9,0.2-1.8,0.5-2.6c0.3-0.9,1.2-1.5,2.2-1.5c0.5,0,0.9,0.1,1.4,0.3l0.5-2c-0.5-0.2-0.9-0.2-1.3-0.3
			c-1.3,0-2.6,0.8-3.2,2v-1.7h-2v12.4h2V201.2z M222.3,194.2c1.7,1.4,2.6,3.6,2.5,5.8c0.2,4.1-2.9,7.5-7,7.8c-0.2,0-0.4,0-0.6,0
			h-4.5v-15.5h4C218.8,192.2,220.7,192.9,222.3,194.2L222.3,194.2z M222.6,200c0.1-1.5-0.5-3-1.5-4.1c-1-1.1-2.4-1.6-3.8-1.6h-2.4
			v11.5h2.7c1.4,0.1,2.7-0.6,3.6-1.6C222.2,203.1,222.7,201.5,222.6,200L222.6,200z M238.7,208.1c-1.7,0.1-3.3-0.7-4.5-2
			c-2.2-2.7-2.2-6.5,0-9.1c1.1-1.3,2.7-2,4.4-2c1.6-0.1,3.2,0.7,4.3,2c1.1,1.4,1.6,3.1,1.5,4.9h-9.8c-0.1,1.1,0.4,2.3,1.1,3.1
			c0.8,0.9,1.9,1.4,3.1,1.4c0.8,0,1.6-0.3,2.3-0.8c0.6-0.4,1.1-1,1.4-1.7l1.7,0.9c-0.5,0.9-1.2,1.7-2.1,2.3
			C241.1,207.8,239.9,208.1,238.7,208.1L238.7,208.1z M234.7,200.3h7.6c-0.1-0.9-0.4-1.8-1-2.5c-0.7-0.7-1.7-1.1-2.7-1.1
			c-1,0-2,0.4-2.7,1.1C235.3,198.5,234.8,199.4,234.7,200.3L234.7,200.3z M254.8,201.2c0-0.9,0.2-1.8,0.5-2.6
			c0.3-0.9,1.2-1.5,2.2-1.5c0.5,0,0.9,0.1,1.4,0.3l0.5-2c-0.4-0.2-0.9-0.2-1.3-0.3c-1.4-0.1-2.6,0.8-3.2,2v-1.7h-2v12.4h2V201.2z
			 M274.9,199.4v8.3h2v-8.9c0.1-1.1-0.4-2.1-1.2-2.8c-0.9-0.7-2-1.1-3.1-1.1c-1.5-0.1-2.9,0.8-3.7,2.1v-1.7H267v12.4h2v-6.9
			c-0.1-1,0.3-1.9,0.8-2.7c0.6-0.8,1.6-1.2,2.6-1.2C274.1,196.9,274.9,197.7,274.9,199.4L274.9,199.4z M286.7,206.2
			c-2.2-2.7-2.2-6.5,0-9.1c1.1-1.3,2.7-2,4.4-2c1.6-0.1,3.2,0.7,4.3,2c1.1,1.4,1.6,3.1,1.5,4.9h-9.8c-0.1,1.1,0.4,2.3,1.1,3.1
			c0.8,0.9,1.9,1.4,3.1,1.4c0.8,0,1.6-0.3,2.3-0.8c0.6-0.4,1.1-1,1.4-1.7l1.7,0.9c-0.5,0.9-1.2,1.7-2.1,2.3
			C292.1,208.8,288.7,208.4,286.7,206.2L286.7,206.2z M287.3,200.3h7.6c-0.1-0.9-0.4-1.8-1-2.5c-0.7-0.7-1.7-1.1-2.7-1.1
			c-1,0-2,0.4-2.7,1.1C287.8,198.5,287.4,199.3,287.3,200.3L287.3,200.3z M314.9,195.3h1.8v11.4c0.1,1.4-0.4,2.8-1.4,3.8
			c-1,1.1-2.6,1.6-4.5,1.6c-1.3,0.1-2.7-0.4-3.7-1.2c-1-0.7-1.6-1.8-1.7-3h2.1c0.4,1.6,1.5,2.4,3.4,2.4c1.1,0.1,2.2-0.3,3-1
			c0.7-0.6,1-1.5,1-2.5v-1.2c-0.9,1.4-2.5,2.2-4.2,2.1c-1.6,0.1-3.2-0.6-4.3-1.8c-1.1-1.2-1.7-2.8-1.7-4.5c-0.1-1.7,0.6-3.3,1.7-4.6
			c1.1-1.2,2.6-2,4.3-2c0.9,0,1.8,0.2,2.6,0.7c0.7,0.4,1.3,1,1.8,1.7L314.9,195.3z M314.9,201.6c0.1-1.2-0.3-2.4-1-3.3
			c-1.5-1.7-4.1-2-5.8-0.5c-0.1,0.1-0.3,0.2-0.4,0.3c-0.8,1-1.2,2.2-1.1,3.4c-0.1,1.2,0.4,2.3,1.2,3.2s1.9,1.3,3,1.3
			c1.1,0.1,2.2-0.4,2.9-1.2C314.5,204,314.9,202.8,314.9,201.6L314.9,201.6z M310.7,194.4c0.8,0.1,1.5-0.3,2-0.9
			c0.4-0.5,0.6-1,0.6-1.6h-1.5c-0.2,0.7-0.5,1-1,1s-0.9-0.3-1.1-1h-1.5C308.3,193.6,309.2,194.4,310.7,194.4L310.7,194.4z
			 M325.7,207.8h2v-12.4h-2V207.8z M327.8,191.8c-0.3-0.3-0.6-0.4-1-0.4c-0.4,0-0.7,0.2-1,0.4c-0.5,0.5-0.5,1.4,0,2
			c0.3,0.3,0.6,0.4,1,0.4c0.8,0,1.4-0.6,1.4-1.4C328.1,192.4,328,192,327.8,191.8z M19,179h2.1v-13.5h3.4v-2h-8.8v2H19V179z
			 M45.8,179.3c1.2,0.1,2.4-0.4,3.4-1.1c1-0.8,1.5-2,1.5-3.3v-8.4h-2v8.5c0.1,0.7-0.3,1.4-0.8,2c-0.6,0.5-1.3,0.7-2,0.7
			c-2,0-3-0.9-3-2.6v-8.4h-2v8.5c-0.1,1.2,0.5,2.5,1.4,3.3C43.3,179,44.6,179.4,45.8,179.3L45.8,179.3z M48.1,163.3h-1.4v2.1h1.4
			V163.3z M44.8,163.3h-1.4v2.1h1.4V163.3z M70.5,172.4c0-0.9,0.2-1.7,0.5-2.6c0.5-1,1.2-1.5,2.2-1.6c0.5,0,0.9,0.1,1.4,0.3l0.5-2
			c-0.5-0.2-0.9-0.3-1.4-0.3c-1.4,0-2.6,0.8-3.2,2v-1.7h-2V179h2L70.5,172.4L70.5,172.4z M100.6,166.5h-2.5l-4.8,5.7v-8.8h-2V179h2
			v-5.9l4.9,5.9h2.7l-5.5-6.4L100.6,166.5z M117.1,179h2v-12.4h-2V179z M118.1,165.4c0.4,0,0.7-0.2,1-0.4c0.3-0.3,0.4-0.6,0.4-1
			c0-0.8-0.6-1.4-1.4-1.4l0,0c-0.8,0.1-1.3,0.7-1.3,1.4C116.8,164.8,117.4,165.3,118.1,165.4L118.1,165.4z M138,184h2.2l7.5-17.5
			h-2.1l-3.7,8.7l-4.5-8.7h-2.3l5.9,10.8L138,184z M165.3,177.4c-2.2-2.7-2.2-6.5,0-9.1c1.1-1.3,2.7-2,4.4-2c1.6-0.1,3.2,0.7,4.2,2
			c1.1,1.4,1.6,3.1,1.5,4.9h-9.8c-0.1,1.1,0.4,2.3,1.1,3.1c0.8,0.9,1.9,1.4,3.1,1.4c0.8,0,1.6-0.3,2.3-0.8c0.6-0.4,1.1-1,1.4-1.7
			l1.7,0.9c-0.5,0.9-1.2,1.7-2.1,2.3C170.7,180,167.3,179.6,165.3,177.4L165.3,177.4z M165.8,171.5h7.6c-0.1-0.9-0.4-1.8-1.1-2.5
			c-0.7-0.7-1.7-1.1-2.7-1.1c-1,0-2,0.4-2.7,1.1C166.4,169.7,165.9,170.6,165.8,171.5L165.8,171.5z M214.8,171.4l6.3,7.6h2.9
			l-7.1-8.2l6.4-7.3h-2.6l-6,6.9v-6.9h-2.1V179h2.1L214.8,171.4z M249.5,166.5h1.9V179h-1.9v-1.7c-0.5,0.6-1,1.1-1.7,1.4
			c-0.8,0.4-1.6,0.6-2.5,0.6c-1.6,0.1-3.2-0.7-4.2-2c-1.1-1.2-1.7-2.9-1.7-4.6c-0.1-1.7,0.6-3.4,1.7-4.7c1.1-1.2,2.7-2,4.3-1.9
			c1.6,0,3.2,0.7,4.2,2L249.5,166.5z M249.6,172.6c0.1-1.2-0.3-2.4-1-3.3c-1.5-1.6-4.2-1.7-5.8-0.2c-0.1,0.1-0.2,0.2-0.3,0.3
			c-0.8,1-1.2,2.2-1.2,3.4c0,1.2,0.4,2.3,1.2,3.2c0.8,0.9,1.8,1.4,3,1.3c1.1,0.1,2.2-0.4,2.9-1.2
			C249.3,175.2,249.7,173.9,249.6,172.6L249.6,172.6z M270.1,177.3c-1-1.3-1.6-3-1.5-4.7c0-1.6,0.6-3.1,1.6-4.3
			c2-2.4,5.4-2.7,7.8-0.8c0.3,0.2,0.5,0.4,0.7,0.7v-4.7h2V179h-1.9v-1.8c-0.4,0.6-0.9,1.2-1.6,1.5c-0.8,0.5-1.6,0.7-2.6,0.7
			C272.8,179.4,271.1,178.7,270.1,177.3L270.1,177.3z M270.5,172.5c-0.1,1.2,0.4,2.4,1.1,3.4c0.7,1,2,1.6,3.2,1.5
			c1.1,0.1,2.2-0.4,2.9-1.2c0.8-0.9,1.2-2.2,1.1-3.3c0-1.6-0.4-2.8-1.1-3.6c-0.8-0.9-2-1.3-3.1-1.3c-1.1,0-2.3,0.5-3,1.4
			C270.9,170.3,270.5,171.4,270.5,172.5L270.5,172.5z M300.4,166.5h-2V179h2V166.5z M320.3,172c-0.1-1,0.3-2,0.8-2.7
			c0.6-0.8,1.6-1.2,2.6-1.2c1.6,0,2.5,0.8,2.5,2.5v8.3h2v-8.8c0.1-1.1-0.4-2.1-1.2-2.8c-0.9-0.7-2-1.1-3.1-1.1
			c-1.5-0.1-2.9,0.8-3.7,2.1v-1.7h-2V179h2L320.3,172z M80.3,200.9l-1.2-0.6c-0.5-0.2-0.9-0.5-1.3-0.8c-0.4-0.3-0.6-0.8-0.6-1.2
			c0-0.4,0.2-0.8,0.5-1.1c0.3-0.3,0.8-0.5,1.2-0.5c0.9,0,1.5,0.5,1.9,1.4l1.6-0.7c-0.3-0.7-0.7-1.3-1.4-1.8
			c-0.6-0.5-1.4-0.7-2.1-0.7c-1-0.1-2,0.3-2.7,1c-0.7,0.6-1,1.5-1,2.4c0,1.5,0.7,2.6,2.2,3.3l2,0.9c0.8,0.3,1.4,1,1.4,1.9
			c0,0.5-0.2,1-0.6,1.3c-0.5,0.4-1,0.5-1.6,0.5c-1,0-2-0.7-2.3-1.6l-1.7,0.9c0.6,1.5,2,2.5,3.6,2.5c-0.3,0.6-0.6,1.2-1.1,1.7
			l0.5,0.5c0.3-0.2,0.6-0.3,0.9-0.3c0.2,0,0.4,0.1,0.6,0.2c0.2,0.1,0.3,0.3,0.3,0.5c0,0.3-0.1,0.5-0.3,0.7c-0.2,0.2-0.4,0.3-0.7,0.3
			c-0.4,0-0.7-0.2-1-0.4l-0.6,0.6c0.5,0.5,1.2,0.8,2,0.7c0.5,0,1-0.2,1.5-0.5c0.4-0.3,0.7-0.8,0.6-1.3c0-0.4-0.2-0.9-0.5-1.1
			c-0.3-0.3-0.8-0.5-1.2-0.5c-0.2,0-0.4,0.1-0.5,0.1l0.7-1.1c0.8-0.1,1.6-0.4,2.3-0.9c0.8-0.7,1.3-1.7,1.2-2.8
			C82.7,202.8,81.9,201.6,80.3,200.9z"/>
	</g>
</g>
</svg>
