<?xml version="1.0" encoding="utf-8"?>
<!-- Generator: Adobe Illustrator 26.1.0, SVG Export Plug-In . SVG Version: 6.00 Build 0)  -->
<svg version="1.1" id="Layer_1" xmlns="http://www.w3.org/2000/svg" xmlns:xlink="http://www.w3.org/1999/xlink" x="0px" y="0px"
	 viewBox="0 0 24 24" style="enable-background:new 0 0 24 24;" xml:space="preserve">
<style type="text/css">
	.st0{fill:#202C54;}
</style>
<g>
	<path class="st0" d="M11.87,21.98c-0.88-0.02-2.2-0.03-3.52-0.08c-0.8-0.02-1.59-0.08-2.36-0.31c-1.64-0.49-2.81-1.5-3.45-3.1
		c-0.25-0.62-0.38-1.26-0.42-1.91c-0.04-0.71-0.07-1.43-0.09-2.14c-0.02-1.26-0.05-2.53-0.03-3.8c0.01-1.23,0-2.46,0.16-3.68
		c0.1-0.82,0.32-1.61,0.77-2.32C3.77,3.33,4.96,2.54,6.5,2.25c0.75-0.14,1.51-0.17,2.27-0.18c1.36-0.01,2.72-0.05,4.07-0.05
		c0.87,0,1.73,0.05,2.6,0.06c0.74,0.01,1.48,0.02,2.2,0.19c1.7,0.4,3,1.33,3.73,2.96c0.37,0.82,0.53,1.69,0.55,2.59
		C21.95,9.45,22,11.08,22,12.71c0,1.38-0.06,2.76-0.13,4.14c-0.05,0.95-0.33,1.85-0.88,2.63c-0.73,1.03-1.69,1.77-2.93,2.11
		c-0.8,0.22-1.61,0.29-2.43,0.3C14.52,21.92,13.42,21.94,11.87,21.98z M12,3.78C12,3.78,12,3.78,12,3.78
		c-0.94,0-1.88-0.02-2.81,0.01C8.4,3.81,7.6,3.86,6.81,3.96C5.43,4.13,4.24,5.35,3.98,6.6C3.84,7.28,3.82,7.95,3.81,8.63
		c-0.03,2.14-0.02,4.29-0.02,6.43c0,0.89,0.06,1.78,0.34,2.64c0.41,1.26,1.31,1.98,2.55,2.27c0.85,0.2,1.74,0.25,2.61,0.25
		c2.06-0.01,4.12-0.05,6.18-0.06c0.6,0,1.19-0.01,1.78-0.15c0.66-0.16,1.27-0.4,1.78-0.87c0.62-0.57,0.95-1.31,1.07-2.13
		c0.08-0.55,0.13-1.12,0.14-1.68c0.03-1.21,0.05-2.41,0.04-3.62c-0.01-1.32-0.05-2.65-0.1-3.97c-0.02-0.6-0.12-1.19-0.37-1.75
		c-0.52-1.17-1.45-1.83-2.68-2.03c-0.74-0.12-1.49-0.15-2.24-0.18C13.92,3.76,12.96,3.78,12,3.78z"/>
	<path class="st0" d="M17.13,12.02c-0.02,2.86-2.33,5.13-5.23,5.08c-2.78-0.05-5.02-2.36-5-5.14C6.92,9.3,9.05,6.9,12.01,6.9
		C14.93,6.91,17.14,9.23,17.13,12.02z M12.04,15.33c1.65,0.08,3.37-1.36,3.33-3.38c-0.04-1.84-1.54-3.31-3.41-3.29
		c-1.85,0.01-3.32,1.53-3.29,3.4C8.7,14.18,10.6,15.45,12.04,15.33z"/>
	<path class="st0" d="M17.31,7.87c-0.68-0.01-1.2-0.54-1.19-1.21c0.01-0.66,0.55-1.21,1.21-1.2c0.69,0.01,1.23,0.55,1.21,1.23
		C18.53,7.36,17.99,7.88,17.31,7.87z"/>
</g>
</svg>
