<?xml version="1.0" encoding="utf-8"?>
<!-- Generator: Adobe Illustrator 26.1.0, SVG Export Plug-In . SVG Version: 6.00 Build 0)  -->
<svg version="1.1" id="Layer_1" xmlns="http://www.w3.org/2000/svg" xmlns:xlink="http://www.w3.org/1999/xlink" x="0px" y="0px"
	 viewBox="0 0 24 24" style="enable-background:new 0 0 24 24;" xml:space="preserve">
<style type="text/css">
	.st0{fill:#FFFFFF;}
</style>
<g>
	<path class="st0" d="M13.15,21.66c-1.33,0-2.61,0-3.89,0C9.14,21.32,9.1,9.22,9.21,8.77c1.24,0,2.48,0,3.77,0
		c0.01,0.51,0.03,1,0.04,1.59c0.14-0.13,0.21-0.18,0.26-0.25c0.9-1.15,2.1-1.68,3.54-1.7c0.72-0.01,1.43,0.07,2.12,0.31
		c1.19,0.4,1.92,1.25,2.31,2.41c0.23,0.68,0.38,1.39,0.39,2.11c0.03,2.42,0.05,4.85,0.07,7.27c0,0.29,0,0.59,0,0.88
		c0,0.18-0.06,0.28-0.25,0.28c-1.22-0.01-2.45-0.02-3.67-0.03c-0.01,0-0.02-0.01-0.08-0.04c-0.01-0.13-0.03-0.28-0.03-0.44
		c-0.01-2.04,0-4.08-0.02-6.12c-0.01-0.53-0.05-1.07-0.16-1.58c-0.2-0.97-0.85-1.49-1.84-1.51c-0.29-0.01-0.59,0.03-0.87,0.09
		c-0.63,0.14-1.06,0.53-1.31,1.13c-0.24,0.57-0.32,1.18-0.32,1.8c0,2.12,0.01,4.24,0.01,6.36C13.19,21.43,13.17,21.52,13.15,21.66z"
		/>
	<path class="st0" d="M2.69,8.77c1.28,0,2.56,0,3.85,0C6.55,8.79,6.56,8.8,6.57,8.81c0.01,0.01,0.02,0.02,0.02,0.03
		C6.6,8.93,6.62,9.02,6.62,9.11c0,4.13,0,8.26,0,12.39c0,0.04-0.02,0.07-0.04,0.11c-0.31,0.09-3.45,0.1-3.9,0.02
		C2.59,21.26,2.58,9.14,2.69,8.77z"/>
	<path class="st0" d="M4.63,2.32c1.32,0,2.35,1.08,2.31,2.39C6.91,5.93,5.84,6.97,4.6,6.98C3.45,6.98,2.27,6.05,2.27,4.63
		C2.27,3.33,3.34,2.3,4.63,2.32z"/>
</g>
</svg>
